<svg width="1516" height="437" viewBox="0 0 1516 437" fill="none" xmlns="http://www.w3.org/2000/svg">
<path d="M385.65 0V268.21C382.54 336.46 340.57 394.58 281.34 420.97C274.49 424.02 267.41 426.64 260.13 428.81C244.17 433.57 227.27 436.12 209.77 436.12C206.74 436.12 203.74 436.04 200.75 435.89C225.52 419.88 246.01 397.81 260.13 371.79C273.66 346.86 281.34 318.3 281.34 287.94V56.25L385.65 0Z" fill="#0A0A0A"/>
<path d="M260.13 67.6904V280.15C260.13 348.18 216.58 406.04 155.83 427.35C155.66 427.42 155.49 427.48 155.31 427.53H155.3C149.68 429.49 143.9 431.13 138 432.44C127.11 434.85 115.78 436.12 104.16 436.12C101.7 436.12 99.2501 436.06 96.8201 435.95C105.7 428.9 113.79 420.9 120.94 412.1C127.44 404.11 133.16 395.46 138 386.27C149.38 364.61 155.83 339.95 155.83 313.78V123.94L161.32 120.98L228.16 84.9305L260.13 67.6904Z" fill="#0A0A0A"/>
<path opacity="0.52" d="M385.84 260.051C385.84 262.781 385.78 265.511 385.65 268.211V251.891C385.78 254.591 385.84 257.321 385.84 260.051Z" fill="#0A0A0A"/>
<path d="M138 133.561V312.991C138 346.751 124.41 377.341 102.39 399.591C89.68 412.441 74.14 422.511 56.79 428.801C49.4 431.481 41.67 433.471 33.7 434.691C27.56 435.631 21.26 436.121 14.86 436.121C13.23 436.121 11.61 436.091 9.98999 436.031C9.98999 436.031 9.98 436.031 9.98 436.021C6.62 435.891 3.29 435.631 0 435.231C1.15 434.021 2.27 432.791 3.36 431.531C9.04 425.041 14.04 417.941 18.26 410.351C28.1 392.651 33.7 372.281 33.7 350.601V189.811L53.3 179.241L65.91 172.441L138 133.561Z" fill="#0A0A0A"/>
<path d="M456.02 53.3301H590.01V90.1301H494.09V121.85H586.21V157.38H494.09V189.1H590.01V225.9H456.02V53.3401V53.3301Z" fill="black"/>
<path d="M617.92 124.39H605.23V86.3203H649.64V104.08H653.45C665.12 89.8703 679.08 83.7803 701.41 83.7803C737.45 83.7803 766.37 115.76 766.37 156.1C766.37 196.44 737.44 228.42 701.41 228.42C681.62 228.42 668.42 223.6 657.25 212.43H653.44V276.63H617.91V124.37L617.92 124.39ZM653.45 158.14C653.45 178.19 670.2 193.92 692.02 193.92C713.84 193.92 729.58 178.95 729.58 156.11C729.58 133.27 714.86 118.3 692.02 118.3C669.18 118.3 653.45 134.03 653.45 154.08V158.14Z" fill="black"/>
<path d="M784.14 35.5703H819.67V100.03H823.73C834.64 89.3703 848.6 83.7903 864.08 83.7903C895.8 83.7903 919.66 111.71 919.66 148.75V225.9H884.13V159.16C884.13 132.51 872.96 118.05 851.9 118.05C830.84 118.05 819.67 133.02 819.67 159.16V225.9H784.14V35.5703Z" fill="black"/>
<path d="M947.56 124.39H934.87V86.3203H976.74V104.08H980.55C989.69 92.6603 1002.63 86.3203 1016.33 86.3203H1041.96V120.58H1014.81C993.75 120.58 983.09 133.78 983.09 159.15V225.89H947.56V124.38V124.39Z" fill="black"/>
<path d="M1116.57 83.79C1157.68 83.79 1181.53 105.61 1181.53 143.43V188.09H1194.22V225.9H1152.35V208.39H1148.54C1136.11 221.33 1119.61 228.44 1101.59 228.44C1070.88 228.44 1049.57 211.18 1049.57 186.57C1049.57 122.11 1142.96 148.76 1142.96 132.26C1142.96 123.89 1132.05 117.8 1117.33 117.8C1102.61 117.8 1091.45 124.65 1091.45 134.55H1054.65C1054.65 103.84 1079.27 83.8 1116.57 83.8V83.79ZM1105.66 193.16C1125.45 193.16 1141.44 181.23 1144.99 163.98C1121.14 166.52 1088.4 166.01 1088.4 183.27C1088.4 188.85 1095.76 193.17 1105.66 193.17V193.16Z" fill="black"/>
<path d="M1229.24 35.5703C1239.64 35.5703 1248.27 44.7103 1248.27 54.8603C1248.27 65.7703 1239.64 74.6503 1229.24 74.6503C1218.84 74.6503 1209.45 65.7703 1209.45 54.8603C1209.45 44.7103 1218.33 35.5703 1229.24 35.5703ZM1211.22 86.3203H1246.75V225.89H1211.22V86.3203Z" fill="black"/>
<path d="M1448.24 118.05C1427.94 118.05 1416.52 132.77 1416.52 159.16V225.9H1380.99V159.16C1380.99 132.51 1369.82 118.05 1348.76 118.05C1327.7 118.05 1317.04 132.77 1317.04 159.16V225.9H1281.51V124.39H1268.82V86.3203H1310.69V104.08H1314.5C1325.41 91.3903 1342.67 83.7803 1360.94 83.7803C1379.21 83.7803 1395.71 93.9303 1406.11 112.2H1409.15C1419.55 93.4203 1437.07 83.7803 1460.41 83.7803C1492.13 83.7803 1515.99 111.7 1515.99 148.74V225.89H1480.46V159.15C1480.46 132.5 1469.29 118.04 1448.23 118.04L1448.24 118.05Z" fill="black"/>
<path d="M494.1 396.54C488.13 396.54 482.75 395.55 477.96 393.57C473.17 391.59 469.22 388.79 466.09 385.15C462.96 381.52 460.87 377.2 459.82 372.19L466.96 370.98C468.45 376.79 471.65 381.37 476.56 384.72C481.47 388.07 487.37 389.75 494.27 389.75C498.95 389.75 503.09 389 506.68 387.51C510.27 386.02 513.08 383.91 515.1 381.18C517.12 378.46 518.13 375.28 518.13 371.64C518.13 369.02 517.66 366.82 516.71 365.04C515.76 363.26 514.54 361.8 513.05 360.65C511.56 359.5 509.96 358.57 508.27 357.86C506.57 357.15 504.98 356.58 503.49 356.13L481.57 349.59C478.66 348.74 476.07 347.68 473.79 346.41C471.51 345.14 469.59 343.67 468.04 341.99C466.49 340.32 465.29 338.41 464.47 336.27C463.64 334.13 463.23 331.75 463.23 329.13C463.23 324.45 464.48 320.35 466.98 316.84C469.48 313.33 472.92 310.59 477.3 308.64C481.68 306.69 486.72 305.7 492.41 305.7C498.14 305.74 503.29 306.8 507.85 308.88C512.41 310.96 516.15 313.9 519.08 317.69C522.01 321.48 523.89 325.98 524.74 331.19L517.53 332.46C516.96 328.46 515.52 324.97 513.2 321.99C510.88 319 507.92 316.68 504.33 315.03C500.74 313.37 496.74 312.55 492.34 312.55C488.1 312.51 484.36 313.22 481.11 314.67C477.86 316.12 475.31 318.08 473.45 320.54C471.59 323 470.66 325.79 470.66 328.9C470.66 332.01 471.54 334.7 473.29 336.62C475.05 338.54 477.21 340.04 479.77 341.13C482.33 342.22 484.79 343.11 487.13 343.79L504.69 349C506.34 349.48 508.32 350.17 510.62 351.06C512.92 351.95 515.18 353.21 517.4 354.84C519.62 356.47 521.47 358.63 522.94 361.32C524.41 364 525.15 367.36 525.15 371.4C525.15 375.44 524.4 378.83 522.91 381.94C521.42 385.05 519.28 387.68 516.49 389.84C513.7 392 510.41 393.65 506.62 394.8C502.83 395.95 498.65 396.53 494.09 396.53L494.1 396.54Z" fill="#666666"/>
<path d="M632.09 396.541C625.59 396.541 620.08 395.071 615.56 392.121C611.04 389.171 607.59 385.101 605.21 379.891C602.83 374.681 601.64 368.691 601.64 361.911C601.64 355.131 602.85 349.081 605.27 343.901C607.69 338.711 611.17 334.691 615.71 331.821C620.25 328.951 625.71 327.521 632.09 327.521C638.47 327.521 644.11 328.981 648.65 331.911C653.19 334.841 656.64 338.881 659 344.051C661.36 349.221 662.54 355.171 662.54 361.911C662.54 368.651 661.35 374.861 658.97 380.041C656.59 385.231 653.12 389.271 648.56 392.181C644 395.091 638.51 396.541 632.09 396.541ZM632.09 389.761C639.8 389.761 645.56 387.181 649.38 382.011C653.2 376.841 655.1 370.141 655.1 361.911C655.1 353.681 653.18 346.811 649.35 341.811C645.51 336.811 639.76 334.301 632.09 334.301C626.88 334.301 622.58 335.481 619.19 337.841C615.8 340.201 613.27 343.451 611.59 347.591C609.92 351.731 609.08 356.501 609.08 361.911C609.08 370.311 611.03 377.051 614.92 382.131C618.81 387.211 624.54 389.761 632.09 389.761Z" fill="#666666"/>
<path d="M744.89 394.731V305.721H751.85V394.731H744.89Z" fill="#666666"/>
<path d="M862.96 396.24C859.37 396.24 856.15 395.71 853.3 394.67C850.45 393.63 847.98 392.14 845.88 390.22C843.78 388.3 842.05 386.04 840.67 383.44C839.3 380.84 838.28 377.98 837.61 374.87C836.94 371.76 836.61 368.51 836.61 365.12V329.34H843.63V363.37C843.63 367.49 844.04 371.16 844.87 374.39C845.7 377.62 846.95 380.36 848.62 382.62C850.29 384.88 852.39 386.6 854.92 387.77C857.44 388.94 860.42 389.53 863.85 389.53C867.28 389.53 870.48 388.91 873.08 387.68C875.68 386.45 877.82 384.72 879.5 382.5C881.17 380.28 882.43 377.65 883.25 374.6C884.08 371.55 884.49 368.23 884.49 364.64L890 365.31C890 372.37 888.8 378.2 886.4 382.78C884 387.36 880.76 390.75 876.68 392.95C872.6 395.15 868.02 396.25 862.93 396.25L862.96 396.24ZM885.18 394.73V380.02H884.51V329.34H891.53V394.73H885.17H885.18Z" fill="#666666"/>
<path d="M969.03 335.691V329.331H1010.99V335.691H969.03ZM1010.99 394.731C1007.52 395.501 1004.09 395.791 1000.7 395.611C997.31 395.431 994.29 394.661 991.65 393.311C989.01 391.961 987.02 389.871 985.69 387.041C984.6 384.741 983.99 382.421 983.87 380.081C983.75 377.741 983.69 375.051 983.69 372.031V311.181H990.71V371.911C990.71 374.661 990.74 376.931 990.8 378.721C990.86 380.511 991.27 382.161 992.04 383.651C993.49 386.441 995.79 388.121 998.94 388.711C1002.09 389.301 1006.11 389.211 1010.99 388.441V394.741V394.731Z" fill="#666666"/>
<path d="M1092.55 316.13V307.23H1099.51V316.13H1092.55ZM1092.55 394.73V329.34H1099.51V394.73H1092.55Z" fill="#666666"/>
<path d="M1212.32 396.541C1205.82 396.541 1200.31 395.071 1195.79 392.121C1191.27 389.171 1187.82 385.101 1185.44 379.891C1183.06 374.681 1181.87 368.691 1181.87 361.911C1181.87 355.131 1183.08 349.081 1185.5 343.901C1187.92 338.711 1191.4 334.691 1195.94 331.821C1200.48 328.951 1205.94 327.521 1212.32 327.521C1218.7 327.521 1224.34 328.981 1228.88 331.911C1233.42 334.841 1236.87 338.881 1239.23 344.051C1241.59 349.221 1242.77 355.171 1242.77 361.911C1242.77 368.651 1241.58 374.861 1239.2 380.041C1236.82 385.231 1233.35 389.271 1228.79 392.181C1224.23 395.091 1218.74 396.541 1212.32 396.541ZM1212.32 389.761C1220.03 389.761 1225.79 387.181 1229.61 382.011C1233.43 376.841 1235.33 370.141 1235.33 361.911C1235.33 353.681 1233.41 346.811 1229.58 341.811C1225.74 336.811 1219.99 334.301 1212.32 334.301C1207.11 334.301 1202.81 335.481 1199.42 337.841C1196.03 340.201 1193.5 343.451 1191.82 347.591C1190.15 351.731 1189.31 356.501 1189.31 361.911C1189.31 370.311 1191.26 377.051 1195.15 382.131C1199.04 387.211 1204.77 389.761 1212.32 389.761Z" fill="#666666"/>
<path d="M1323.9 394.73V329.34H1330.26V344.05H1330.93V394.73H1323.91H1323.9ZM1371.8 394.73V360.7C1371.8 356.58 1371.39 352.91 1370.56 349.68C1369.73 346.45 1368.48 343.71 1366.81 341.45C1365.13 339.19 1363.03 337.47 1360.51 336.3C1357.99 335.13 1355.01 334.54 1351.58 334.54C1348.15 334.54 1344.95 335.16 1342.35 336.39C1339.75 337.62 1337.61 339.35 1335.93 341.57C1334.26 343.79 1333 346.42 1332.18 349.47C1331.35 352.52 1330.94 355.84 1330.94 359.43L1325.43 358.76C1325.43 351.7 1326.63 345.87 1329.03 341.29C1331.43 336.71 1334.67 333.32 1338.75 331.12C1342.83 328.92 1347.41 327.82 1352.5 327.82C1356.09 327.82 1359.31 328.35 1362.16 329.39C1365.01 330.44 1367.48 331.92 1369.58 333.84C1371.68 335.76 1373.41 338.02 1374.79 340.62C1376.16 343.22 1377.18 346.08 1377.85 349.19C1378.52 352.3 1378.85 355.55 1378.85 358.94V394.72H1371.83L1371.8 394.73Z" fill="#666666"/>
<path d="M1486.53 396.42C1478.98 396.42 1472.76 394.83 1467.85 391.64C1462.94 388.45 1459.91 384.01 1458.74 378.32L1465.88 377.11C1466.89 380.99 1469.27 384.07 1473.02 386.37C1476.77 388.67 1481.38 389.82 1486.82 389.82C1492.26 389.82 1496.53 388.67 1499.72 386.37C1502.91 384.07 1504.5 380.92 1504.5 376.92C1504.5 374.74 1504 372.95 1503.02 371.56C1502.03 370.17 1500.08 368.89 1497.18 367.72C1494.28 366.55 1489.95 365.18 1484.22 363.6C1478.17 361.99 1473.43 360.37 1470.02 358.76C1466.61 357.15 1464.21 355.31 1462.81 353.25C1461.41 351.19 1460.72 348.67 1460.72 345.68C1460.72 342.09 1461.75 338.93 1463.81 336.2C1465.87 333.47 1468.74 331.35 1472.44 329.81C1476.13 328.28 1480.4 327.51 1485.25 327.51C1490.1 327.51 1494.45 328.31 1498.33 329.9C1502.21 331.49 1505.33 333.71 1507.71 336.56C1510.09 339.41 1511.46 342.71 1511.83 346.46L1504.69 347.79C1504 343.59 1501.88 340.27 1498.33 337.83C1494.78 335.39 1490.34 334.15 1485.01 334.11C1479.96 334.03 1475.85 335.03 1472.66 337.11C1469.47 339.19 1467.88 341.92 1467.88 345.31C1467.88 347.25 1468.43 348.89 1469.55 350.24C1470.66 351.59 1472.63 352.83 1475.45 353.96C1478.28 355.09 1482.27 356.3 1487.44 357.59C1493.74 359.21 1498.65 360.86 1502.18 362.56C1505.71 364.26 1508.2 366.24 1509.66 368.52C1511.12 370.8 1511.84 373.62 1511.84 376.97C1511.84 383.02 1509.59 387.78 1505.09 391.23C1500.59 394.68 1494.4 396.41 1486.53 396.41V396.42Z" fill="#666666"/>
</svg>
