<svg width="386" height="437" viewBox="0 0 386 437" fill="none" xmlns="http://www.w3.org/2000/svg">
<path d="M385.65 0V268.21C382.54 336.46 340.57 394.58 281.34 420.97C274.49 424.02 267.41 426.64 260.13 428.81C244.17 433.57 227.27 436.12 209.77 436.12C206.74 436.12 203.74 436.04 200.75 435.89C225.52 419.88 246.01 397.81 260.13 371.79C273.66 346.86 281.34 318.3 281.34 287.94V56.25L385.65 0Z" fill="white"/>
<path d="M260.13 67.6904V280.15C260.13 348.18 216.58 406.04 155.83 427.35C155.66 427.42 155.49 427.48 155.31 427.53H155.3C149.68 429.49 143.9 431.13 138 432.44C127.11 434.85 115.78 436.12 104.16 436.12C101.7 436.12 99.2501 436.06 96.8201 435.95C105.7 428.9 113.79 420.9 120.94 412.1C127.44 404.11 133.16 395.46 138 386.27C149.38 364.61 155.83 339.95 155.83 313.78V123.94L161.32 120.98L228.16 84.9305L260.13 67.6904Z" fill="white"/>
<path opacity="0.52" d="M385.84 260.051C385.84 262.781 385.78 265.511 385.65 268.211V251.891C385.78 254.591 385.84 257.321 385.84 260.051Z" fill="white"/>
<path d="M138 133.561V312.991C138 346.751 124.41 377.341 102.39 399.591C89.68 412.441 74.14 422.511 56.79 428.801C49.4 431.481 41.67 433.471 33.7 434.691C27.56 435.631 21.26 436.121 14.86 436.121C13.23 436.121 11.61 436.091 9.98999 436.031C9.98999 436.031 9.98001 436.031 9.98001 436.021C6.62001 435.891 3.29 435.631 0 435.231C1.15 434.021 2.26999 432.791 3.35999 431.531C9.03999 425.041 14.04 417.941 18.26 410.351C28.1 392.651 33.7 372.281 33.7 350.601V189.811L53.3 179.241L65.91 172.441L138 133.561Z" fill="white"/>
</svg>
