<svg width="1537" height="437" viewBox="0 0 1537 437" fill="none" xmlns="http://www.w3.org/2000/svg">
<path d="M385.65 0V268.21C382.54 336.46 340.57 394.58 281.34 420.97C274.49 424.02 267.41 426.64 260.13 428.81C244.17 433.57 227.27 436.12 209.77 436.12C206.74 436.12 203.74 436.04 200.75 435.89C225.52 419.88 246.01 397.81 260.13 371.79C273.66 346.86 281.34 318.3 281.34 287.94V56.25L385.65 0Z" fill="url(#paint0_linear_1549_5038)"/>
<path d="M260.13 67.6914V280.151C260.13 348.181 216.58 406.041 155.83 427.351C155.66 427.421 155.49 427.481 155.31 427.531H155.3C149.68 429.491 143.9 431.131 138 432.441C127.11 434.851 115.78 436.121 104.16 436.121C101.7 436.121 99.2498 436.061 96.8198 435.951C105.7 428.901 113.79 420.901 120.94 412.101C127.44 404.111 133.16 395.461 138 386.271C149.38 364.611 155.83 339.951 155.83 313.781V123.941L161.32 120.981L228.16 84.9314L260.13 67.6914Z" fill="url(#paint1_linear_1549_5038)"/>
<path opacity="0.52" d="M385.84 232.051C385.84 234.781 385.78 237.511 385.65 240.211V223.891C385.78 226.591 385.84 229.321 385.84 232.051Z" fill="#0A0A0A"/>
<path d="M138 133.561V312.991C138 346.751 124.41 377.341 102.39 399.591C89.68 412.441 74.14 422.511 56.79 428.801C49.4 431.481 41.67 433.471 33.7 434.691C27.56 435.631 21.26 436.121 14.86 436.121C13.23 436.121 11.61 436.091 9.99001 436.031C9.99001 436.031 9.98 436.031 9.98 436.021C6.62 435.891 3.29 435.631 0 435.231C1.15 434.021 2.27 432.791 3.36 431.531C9.04 425.041 14.04 417.941 18.26 410.351C28.1 392.651 33.7 372.281 33.7 350.601V189.811L53.3 179.241L65.91 172.441L138 133.561Z" fill="url(#paint2_linear_1549_5038)"/>
<path d="M456.02 53.3301H590.01V90.1301H494.08V121.85H586.2V157.38H494.08V189.1H590.01V225.9H456.02V53.3401V53.3301Z" fill="white"/>
<path d="M617.92 124.391H605.23V86.3213H649.64V104.081H653.45C665.12 89.8713 679.08 83.7812 701.41 83.7812C737.45 83.7812 766.37 115.761 766.37 156.101C766.37 196.441 737.44 228.421 701.41 228.421C681.62 228.421 668.42 223.601 657.26 212.431H653.45V276.631H617.92V124.371V124.391ZM653.45 158.141C653.45 178.191 670.2 193.921 692.02 193.921C713.84 193.921 729.58 178.951 729.58 156.111C729.58 133.271 714.86 118.301 692.02 118.301C669.18 118.301 653.45 134.031 653.45 154.081V158.141Z" fill="white"/>
<path d="M784.14 35.5703H819.67V100.03H823.73C834.64 89.3703 848.6 83.7903 864.08 83.7903C895.8 83.7903 919.66 111.71 919.66 148.75V225.9H884.13V159.16C884.13 132.51 872.96 118.05 851.9 118.05C830.84 118.05 819.67 133.02 819.67 159.16V225.9H784.14V35.5703Z" fill="white"/>
<path d="M947.56 124.39H934.87V86.3203H976.74V104.08H980.54C989.68 92.6603 1002.62 86.3203 1016.32 86.3203H1041.95V120.58H1014.8C993.74 120.58 983.08 133.78 983.08 159.15V225.89H947.55V124.38L947.56 124.39Z" fill="white"/>
<path d="M1116.57 83.7812C1157.68 83.7812 1181.53 105.601 1181.53 143.421V188.081H1194.22V225.891H1152.35V208.381H1148.54C1136.11 221.321 1119.61 228.431 1101.59 228.431C1070.88 228.431 1049.57 211.171 1049.57 186.561C1049.57 122.101 1142.96 148.751 1142.96 132.251C1142.96 123.881 1132.05 117.791 1117.33 117.791C1102.61 117.791 1091.45 124.641 1091.45 134.541H1054.65C1054.65 103.831 1079.27 83.7913 1116.57 83.7913V83.7812ZM1105.66 193.161C1125.45 193.161 1141.44 181.231 1144.99 163.981C1121.14 166.521 1088.4 166.011 1088.4 183.271C1088.4 188.851 1095.76 193.171 1105.66 193.171V193.161Z" fill="white"/>
<path d="M1229.24 35.5703C1239.64 35.5703 1248.27 44.7103 1248.27 54.8603C1248.27 65.7703 1239.64 74.6503 1229.24 74.6503C1218.84 74.6503 1209.45 65.7703 1209.45 54.8603C1209.45 44.7103 1218.33 35.5703 1229.24 35.5703ZM1211.22 86.3203H1246.75V225.89H1211.22V86.3203Z" fill="white"/>
<path d="M1448.24 118.04C1427.94 118.04 1416.52 132.76 1416.52 159.15V225.89H1380.99V159.15C1380.99 132.5 1369.82 118.04 1348.76 118.04C1327.7 118.04 1317.04 132.76 1317.04 159.15V225.89H1281.51V124.38H1268.82V86.3095H1310.69V104.07H1314.5C1325.41 91.3795 1342.67 83.7695 1360.94 83.7695C1379.21 83.7695 1395.71 93.9195 1406.11 112.19H1409.15C1419.55 93.4095 1437.06 83.7695 1460.41 83.7695C1492.13 83.7695 1515.98 111.69 1515.98 148.73V225.88H1480.45V159.14C1480.45 132.49 1469.28 118.03 1448.22 118.03L1448.24 118.04Z" fill="white"/>
<path d="M495.43 396.539C489.25 396.539 483.69 395.489 478.75 393.389C473.8 391.289 469.73 388.289 466.52 384.399C463.31 380.509 461.22 375.889 460.25 370.569L471.39 368.809C472.8 374.299 475.74 378.589 480.2 381.679C484.66 384.769 489.92 386.309 495.97 386.309C499.88 386.309 503.42 385.689 506.57 384.459C509.72 383.229 512.23 381.459 514.11 379.159C515.99 376.859 516.93 374.129 516.93 370.989C516.93 369.089 516.59 367.439 515.9 366.029C515.21 364.619 514.3 363.429 513.18 362.459C512.05 361.489 510.76 360.659 509.3 359.979C507.85 359.289 506.33 358.709 504.76 358.219L482.54 351.619C480.12 350.929 477.78 350.039 475.52 348.929C473.26 347.819 471.24 346.429 469.47 344.749C467.69 343.079 466.28 341.049 465.23 338.669C464.18 336.289 463.66 333.479 463.66 330.249C463.66 325.119 465 320.719 467.69 317.049C470.37 313.379 474.02 310.579 478.62 308.659C483.22 306.739 488.41 305.779 494.18 305.779C500.03 305.819 505.27 306.859 509.89 308.899C514.51 310.939 518.35 313.859 521.39 317.649C524.44 321.439 526.49 325.989 527.54 331.269L516.1 333.269C515.49 329.759 514.15 326.709 512.07 324.129C509.99 321.549 507.4 319.559 504.29 318.169C501.18 316.779 497.77 316.059 494.06 316.019C490.51 315.979 487.3 316.559 484.43 317.749C481.56 318.939 479.28 320.579 477.59 322.649C475.89 324.729 475.05 327.099 475.05 329.759C475.05 332.419 475.82 334.619 477.35 336.239C478.89 337.859 480.77 339.139 483.01 340.079C485.25 341.029 487.44 341.809 489.58 342.409L506.17 347.189C508.07 347.719 510.26 348.439 512.74 349.369C515.22 350.299 517.63 351.599 519.98 353.279C522.32 354.959 524.26 357.179 525.79 359.939C527.32 362.709 528.09 366.189 528.09 370.389C528.09 374.589 527.25 378.319 525.58 381.589C523.91 384.859 521.57 387.599 518.59 389.819C515.6 392.039 512.13 393.719 508.18 394.849C504.22 395.979 499.98 396.549 495.47 396.549L495.43 396.539Z" fill="white"/>
<path d="M636.45 396.539C629.95 396.539 624.35 395.07 619.65 392.12C614.95 389.17 611.33 385.109 608.78 379.919C606.24 374.729 604.97 368.75 604.97 361.97C604.97 355.19 606.26 349.14 608.85 343.96C611.43 338.77 615.09 334.739 619.81 331.849C624.53 328.959 630.08 327.52 636.46 327.52C642.84 327.52 648.63 328.99 653.35 331.94C658.07 334.89 661.7 338.939 664.22 344.109C666.74 349.279 668 355.23 668 361.97C668 368.71 666.73 374.799 664.19 379.979C661.65 385.169 658.01 389.22 653.29 392.15C648.57 395.08 642.96 396.539 636.46 396.539H636.45ZM636.45 386.31C643.19 386.31 648.23 384.05 651.56 379.53C654.89 375.01 656.55 369.16 656.55 361.97C656.55 354.78 654.87 348.749 651.52 344.349C648.17 339.949 643.14 337.75 636.44 337.75C631.88 337.75 628.12 338.78 625.18 340.84C622.23 342.9 620.03 345.74 618.58 349.38C617.13 353.02 616.4 357.21 616.4 361.97C616.4 369.32 618.1 375.21 621.49 379.65C624.88 384.09 629.87 386.31 636.45 386.31Z" fill="white"/>
<path d="M750.34 394.719V305.719H761.12V394.719H750.34Z" fill="white"/>
<path d="M871.92 396.418C867.68 396.418 864.07 395.748 861.08 394.418C858.09 393.088 855.61 391.308 853.63 389.088C851.65 386.868 850.1 384.408 848.97 381.698C847.84 378.998 847.04 376.228 846.58 373.408C846.12 370.588 845.88 367.938 845.88 365.478V329.328H856.78V362.088C856.78 365.158 857.06 368.118 857.63 370.988C858.19 373.858 859.15 376.438 860.51 378.738C861.86 381.038 863.68 382.858 865.96 384.188C868.24 385.518 871.1 386.188 874.53 386.188C877.23 386.188 879.69 385.728 881.89 384.798C884.09 383.868 885.98 382.488 887.55 380.648C889.12 378.808 890.34 376.478 891.21 373.658C892.08 370.828 892.51 367.538 892.51 363.788L899.59 365.968C899.59 372.268 898.45 377.698 896.17 382.258C893.89 386.818 890.68 390.318 886.54 392.758C882.4 395.198 877.53 396.418 871.92 396.418ZM893.71 394.718V377.218H892.5V329.328H903.34V394.718H893.71Z" fill="white"/>
<path d="M980.84 338.228V329.328H1024.62V338.228H980.84ZM1024.62 394.718C1020.74 395.528 1016.92 395.858 1013.15 395.718C1009.37 395.578 1006.01 394.808 1003.04 393.418C1000.07 392.028 997.84 389.838 996.35 386.848C995.06 384.268 994.36 381.648 994.26 379.008C994.16 376.368 994.11 373.368 994.11 370.018V311.168H1004.89V369.538C1004.89 372.198 1004.92 374.478 1004.98 376.378C1005.04 378.278 1005.45 379.908 1006.22 381.278C1007.67 383.858 1009.98 385.378 1013.15 385.818C1016.32 386.258 1020.14 386.138 1024.62 385.458V394.718Z" fill="white"/>
<path d="M1106.96 317.769V306.629H1117.74V317.769H1106.96ZM1106.96 394.719V329.329H1117.74V394.719H1106.96Z" fill="white"/>
<path d="M1231.57 396.539C1225.07 396.539 1219.47 395.07 1214.77 392.12C1210.07 389.17 1206.44 385.109 1203.9 379.919C1201.36 374.729 1200.09 368.75 1200.09 361.97C1200.09 355.19 1201.38 349.14 1203.97 343.96C1206.55 338.77 1210.21 334.739 1214.93 331.849C1219.65 328.959 1225.2 327.52 1231.58 327.52C1237.96 327.52 1243.75 328.99 1248.47 331.94C1253.19 334.89 1256.81 338.939 1259.34 344.109C1261.86 349.279 1263.13 355.23 1263.13 361.97C1263.13 368.71 1261.86 374.799 1259.32 379.979C1256.78 385.169 1253.14 389.22 1248.42 392.15C1243.7 395.08 1238.09 396.539 1231.59 396.539H1231.57ZM1231.57 386.31C1238.31 386.31 1243.35 384.05 1246.68 379.53C1250.01 375.01 1251.68 369.16 1251.68 361.97C1251.68 354.78 1250 348.749 1246.65 344.349C1243.3 339.949 1238.27 337.75 1231.57 337.75C1227.01 337.75 1223.25 338.78 1220.31 340.84C1217.36 342.9 1215.16 345.74 1213.71 349.38C1212.26 353.02 1211.53 357.21 1211.53 361.97C1211.53 369.32 1213.23 375.21 1216.62 379.65C1220.01 384.09 1225 386.31 1231.58 386.31H1231.57Z" fill="white"/>
<path d="M1344.19 394.719V329.329H1353.88V346.829H1355.09V394.719H1344.19ZM1390.81 394.719V361.959C1390.81 358.889 1390.53 355.929 1389.96 353.059C1389.39 350.189 1388.45 347.609 1387.11 345.309C1385.77 343.009 1383.97 341.189 1381.69 339.859C1379.41 338.529 1376.53 337.859 1373.06 337.859C1370.35 337.859 1367.9 338.319 1365.7 339.249C1363.5 340.179 1361.61 341.559 1360.04 343.399C1358.47 345.239 1357.25 347.559 1356.38 350.359C1355.51 353.169 1355.08 356.469 1355.08 360.259L1348 358.079C1348 351.779 1349.14 346.359 1351.42 341.789C1353.7 337.229 1356.91 333.729 1361.05 331.289C1365.19 328.849 1370.06 327.629 1375.67 327.629C1379.91 327.629 1383.52 328.299 1386.51 329.629C1389.5 330.959 1391.98 332.739 1393.96 334.959C1395.94 337.179 1397.49 339.639 1398.62 342.349C1399.75 345.059 1400.55 347.819 1401.01 350.639C1401.47 353.469 1401.71 356.109 1401.71 358.569V394.719H1390.81Z" fill="white"/>
<path d="M1509.96 396.479C1502.17 396.479 1495.78 394.769 1490.8 391.359C1485.82 387.949 1482.76 383.179 1481.63 377.039L1492.65 375.28C1493.54 378.83 1495.58 381.649 1498.77 383.729C1501.96 385.809 1505.91 386.849 1510.64 386.849C1515.08 386.849 1518.58 385.92 1521.15 384.06C1523.71 382.2 1524.99 379.68 1524.99 376.49C1524.99 374.67 1524.57 373.189 1523.72 372.039C1522.87 370.889 1521.13 369.809 1518.48 368.799C1515.84 367.789 1511.85 366.559 1506.52 365.109C1500.75 363.579 1496.21 361.989 1492.9 360.359C1489.59 358.729 1487.23 356.82 1485.82 354.64C1484.41 352.46 1483.7 349.8 1483.7 346.65C1483.7 342.82 1484.75 339.469 1486.85 336.599C1488.95 333.729 1491.89 331.499 1495.66 329.909C1499.44 328.319 1503.82 327.52 1508.83 327.52C1513.84 327.52 1518.23 328.31 1522.15 329.88C1526.06 331.45 1529.22 333.68 1531.63 336.57C1534.03 339.46 1535.45 342.82 1535.9 346.65L1524.88 348.65C1524.35 345.18 1522.66 342.42 1519.79 340.39C1516.92 338.35 1513.27 337.27 1508.83 337.15C1504.59 337.03 1501.15 337.8 1498.51 339.45C1495.87 341.11 1494.55 343.329 1494.55 346.109C1494.55 347.729 1495.04 349.09 1496.03 350.2C1497.02 351.31 1498.86 352.37 1501.54 353.38C1504.23 354.39 1508.13 355.54 1513.26 356.83C1519.03 358.28 1523.58 359.87 1526.91 361.58C1530.24 363.29 1532.61 365.31 1534.02 367.63C1535.43 369.95 1536.14 372.81 1536.14 376.2C1536.14 382.5 1533.82 387.45 1529.18 391.06C1524.54 394.67 1518.14 396.479 1509.99 396.479H1509.96Z" fill="white"/>
<defs>
<linearGradient id="paint0_linear_1549_5038" x1="378.63" y1="365.9" x2="220.22" y2="91.54" gradientUnits="userSpaceOnUse">
<stop offset="0.27" stop-color="#6E61FE"/>
<stop offset="0.89" stop-color="#7300FF"/>
</linearGradient>
<linearGradient id="paint1_linear_1549_5038" x1="178.48" y1="436.121" x2="178.48" y2="67.6914" gradientUnits="userSpaceOnUse">
<stop offset="0.23" stop-color="#6E61FE"/>
<stop offset="0.87" stop-color="#7300FF"/>
</linearGradient>
<linearGradient id="paint2_linear_1549_5038" x1="69" y1="436.121" x2="69" y2="217.631" gradientUnits="userSpaceOnUse">
<stop offset="0.21" stop-color="#6E61FE"/>
<stop offset="0.87" stop-color="#7300FF"/>
</linearGradient>
</defs>
</svg>
