<svg width="631" height="181" viewBox="0 0 631 181" fill="none" xmlns="http://www.w3.org/2000/svg">
<path d="M461.511 28.6022C475.135 31.0034 482.051 26.5093 484.408 13.1385C482.051 26.5093 486.973 33.0898 500.638 35.4984C486.973 33.0898 480.07 37.752 477.741 50.9621C480.07 37.752 475.135 31.0034 461.511 28.6022Z" fill="url(#paint0_linear_dark)"/>
<path d="M536.175 94.2298V40.7255H552.067L553.233 49.3074C556.623 43.1623 562.98 39.666 570.502 39.666C579.402 39.666 585.017 43.6921 588.196 50.155C593.917 41.5731 601.863 39.666 609.068 39.666C625.066 39.666 630.364 53.0156 630.364 67.8485V94.2298H613.094V70.6032C613.094 60.432 611.399 54.4989 603.135 54.4989C593.069 54.4989 591.798 62.9748 591.798 74.2054V94.2298H574.528V70.6032C574.528 60.9618 572.833 54.4989 564.463 54.4989C554.398 54.4989 553.445 63.2927 553.233 73.9935V94.2298H536.175Z" fill="#151515"/>
<path d="M484.235 78.2316H499.28V56.7239H486.354V40.7256H517.397V78.2316H530.217V94.2299H484.235V78.2316Z" fill="url(#paint1_linear_dark)"/>
<path d="M439.427 60.2206H423.429C425.442 47.1889 436.885 39.5605 451.082 39.5605C465.385 39.5605 478.311 47.8246 478.311 64.8824V94.2303H464.114L463.266 85.9663C459.876 90.9459 452.671 95.3957 442.288 95.3957C426.29 95.3957 422.052 86.1782 422.052 79.6093C422.052 69.9679 427.031 63.505 442.712 63.505H463.266C463.054 57.36 459.346 52.6982 451.4 52.6982C444.513 52.6982 440.381 55.4529 439.427 60.2206ZM463.266 72.4048H442.606C436.461 72.4048 434.448 74.5238 434.342 77.7022C434.342 82.1521 439.11 84.2711 445.572 84.2711C453.519 84.2711 460.723 80.245 463.266 72.4048Z" fill="url(#paint2_linear_dark)"/>
<path d="M391.75 81.9401L391.644 94.2302H373.526V40.7259H389.313L391.114 51.4268C396.941 43.1628 406.9 38.7129 419.084 39.5605V56.4064C405.947 56.0886 391.75 60.4325 391.75 81.9401Z" fill="#151515"/>
<path d="M306.273 94.231V16.3584H323.331V49.9443C327.357 44.0111 333.185 39.6672 344.309 39.6672C358.612 39.6672 367.618 49.3086 367.618 66.7902V94.231H350.454V70.6043C350.454 59.7975 346.64 54.606 338.482 54.606C329.37 54.606 323.649 59.7975 323.331 74.1007V94.231H306.273Z" fill="#151515"/>
<path d="M254.861 88.0852V118.175H236.744V40.726H253.59L254.12 48.1424C258.358 42.845 264.715 39.5605 272.343 39.5605C288.129 39.5605 300.631 49.3079 300.631 67.6371C300.631 86.0722 288.129 95.3957 272.343 95.3957C265.139 95.3957 259.099 92.747 254.861 88.0852ZM269.482 54.8172C261.536 54.8172 254.967 59.1611 254.967 67.6371C254.967 75.6892 261.112 80.1391 268.953 80.1391C278.17 80.1391 283.786 75.4773 283.786 67.6371C283.786 60.5385 279.23 54.8172 269.482 54.8172Z" fill="#151515"/>
<path d="M172.802 94.2298V19.4297H231.286V35.3221H190.92V48.8835H221.433V64.7759H190.92V78.3374H231.286V94.2298H172.802Z" fill="#151515"/>
<path d="M201.197 153.605C201.038 160.333 196.429 164.359 186.152 164.359C174.604 164.359 168.83 159.168 168.989 149.95H174.763C174.604 156.519 178.524 159.591 186.417 159.591C192.562 159.591 195.317 157.737 195.476 153.87C195.741 144.282 170.048 150.321 170.472 135.912C170.631 129.343 175.769 125.847 184.987 125.847C195.37 125.847 200.614 130.773 200.455 138.719H194.681C194.84 133.21 191.556 130.561 185.04 130.561C179.636 130.561 176.67 132.204 176.564 135.7C176.299 145.394 201.621 138.084 201.197 153.605ZM241.377 164.465C230.782 164.465 222.253 157.26 222.253 145.023C222.253 132.839 230.729 125.741 241.377 125.741C251.972 125.741 260.448 132.839 260.448 145.023C260.448 157.26 252.025 164.465 241.377 164.465ZM241.377 159.379C249.376 159.379 254.78 153.658 254.78 145.129C254.78 136.177 249.058 130.826 241.377 130.826C233.749 130.826 228.028 136.177 228.028 145.076C228.028 153.658 233.484 159.379 241.377 159.379ZM282.241 163.776V126.429H287.909V158.85H306.504V163.776H282.241ZM328.332 149.738V126.429H334.001V148.255C334.001 154.453 337.179 159.379 344.49 159.379C351.959 159.379 355.561 154.506 355.561 148.255V126.429H361.23V149.738C361.23 159.168 354.237 164.412 344.49 164.412C334.689 164.412 328.332 159.115 328.332 149.738ZM395.317 163.776V131.197H383.027V126.429H413.222V131.197H400.985V163.776H395.317ZM457.456 131.356H449.086V158.85H457.456V163.776H435.048V158.85H443.418V131.356H435.048V126.429H457.456V131.356ZM498.366 164.465C487.771 164.465 479.242 157.26 479.242 145.023C479.242 132.839 487.718 125.741 498.366 125.741C508.961 125.741 517.437 132.839 517.437 145.023C517.437 157.26 509.014 164.465 498.366 164.465ZM498.366 159.379C506.365 159.379 511.768 153.658 511.768 145.129C511.768 136.177 506.047 130.826 498.366 130.826C490.737 130.826 485.016 136.177 485.016 145.076C485.016 153.658 490.473 159.379 498.366 159.379ZM567.359 154.4V126.429H572.975V163.776H568.048L544.845 135.806V163.776H539.23V126.429H544.156L567.359 154.4ZM627.702 153.605C627.543 160.333 622.935 164.359 612.658 164.359C601.109 164.359 595.335 159.168 595.494 149.95H601.268C601.109 156.519 605.029 159.591 612.922 159.591C619.067 159.591 621.822 157.737 621.981 153.87C622.246 144.282 596.553 150.321 596.977 135.912C597.136 129.343 602.275 125.847 611.492 125.847C621.875 125.847 627.12 130.773 626.961 138.719H621.186C621.345 133.21 618.061 130.561 611.545 130.561C606.142 130.561 603.175 132.204 603.069 135.7C602.804 145.394 628.126 138.084 627.702 153.605Z" fill="#151515"/>
<path d="M57.6094 0C17.8468 -1.60802e-05 -0.465202 26.4863 4.1701 42.3786C8.80537 58.2708 22.9428 62.3684 36.4196 57.6089C45.9168 54.2549 47.8393 41.202 57.6094 35.0956C83.7839 18.7366 120.759 44.3464 128.209 1.56371C128.348 0.765158 127.734 4.68626e-05 126.923 9.10238e-05C112.58 0.000872464 96.6025 1.5769e-05 57.6094 0Z" fill="url(#paint3_linear_dark)"/>
<path d="M63.5695 87.4082H39.7309C25.1024 87.4082 13.2437 99.267 13.2437 113.895V140.383C13.2437 155.011 25.1024 166.87 39.7309 166.87H115.22" stroke="#151515" stroke-width="26.4873" stroke-linecap="round"/>
<path d="M113.895 70.127C104.625 76.7488 70.8534 74.1 54.2988 74.1V100.587C57.8305 100.808 69.3966 101.117 87.4079 100.587C105.419 100.058 113.895 91.3168 113.895 70.127Z" fill="#151515"/>
<defs>
<linearGradient id="paint0_linear_dark" x1="484.716" y1="26.4222" x2="478.757" y2="54.2338" gradientUnits="userSpaceOnUse">
<stop stop-color="#6E61FE"/>
<stop offset="1" stop-color="#7300FF"/>
</linearGradient>
<linearGradient id="paint1_linear_dark" x1="494.649" y1="32.3824" x2="519.15" y2="107.209" gradientUnits="userSpaceOnUse">
<stop offset="0.599827" stop-color="#6E61FE"/>
<stop offset="1" stop-color="#7300FF"/>
</linearGradient>
<linearGradient id="paint2_linear_dark" x1="443.661" y1="31.7204" x2="466.175" y2="116.48" gradientUnits="userSpaceOnUse">
<stop offset="0.1568" stop-color="#6E61FE"/>
<stop offset="1" stop-color="#7300FF"/>
</linearGradient>
<linearGradient id="paint3_linear_dark" x1="74.01" y1="-0.0646725" x2="54.2986" y2="59.5317" gradientUnits="userSpaceOnUse">
<stop stop-color="#6E61FE"/>
<stop offset="1" stop-color="#7300FF"/>
</linearGradient>
</defs>
</svg>
